<svg width="118" height="27" viewBox="0 0 118 27" fill="none" xmlns="http://www.w3.org/2000/svg">
<path d="M0.16 26V0.799998H9.826C11.194 0.799998 12.43 1.142 13.534 1.826C14.638 2.51 15.514 3.428 16.162 4.58C16.81 5.72 17.134 6.986 17.134 8.378C17.134 9.518 16.924 10.568 16.504 11.528C16.096 12.476 15.52 13.298 14.776 13.994C14.044 14.69 13.198 15.218 12.238 15.578L18.268 26H13.21L7.378 15.974H4.552V26H0.16ZM4.552 11.582H9.322C9.946 11.582 10.516 11.426 11.032 11.114C11.548 10.802 11.962 10.382 12.274 9.854C12.586 9.326 12.742 8.738 12.742 8.09C12.742 7.43 12.586 6.836 12.274 6.308C11.962 5.78 11.548 5.36 11.032 5.048C10.516 4.736 9.946 4.58 9.322 4.58H4.552V11.582ZM28.4003 26.468C26.7443 26.468 25.2323 26.042 23.8643 25.19C22.5083 24.338 21.4223 23.198 20.6063 21.77C19.8023 20.33 19.4003 18.74 19.4003 17C19.4003 15.68 19.6343 14.45 20.1023 13.31C20.5703 12.158 21.2123 11.15 22.0283 10.286C22.8563 9.41 23.8163 8.726 24.9083 8.234C26.0003 7.742 27.1643 7.496 28.4003 7.496C30.0563 7.496 31.5623 7.922 32.9183 8.774C34.2863 9.626 35.3723 10.772 36.1763 12.212C36.9923 13.652 37.4003 15.248 37.4003 17C37.4003 18.308 37.1663 19.532 36.6983 20.672C36.2303 21.812 35.5823 22.82 34.7543 23.696C33.9383 24.56 32.9843 25.238 31.8923 25.73C30.8123 26.222 29.6483 26.468 28.4003 26.468ZM28.4003 22.076C29.2763 22.076 30.0623 21.842 30.7583 21.374C31.4543 20.906 32.0003 20.288 32.3963 19.52C32.8043 18.752 33.0083 17.912 33.0083 17C33.0083 16.064 32.7983 15.212 32.3783 14.444C31.9703 13.664 31.4123 13.046 30.7043 12.59C30.0083 12.122 29.2403 11.888 28.4003 11.888C27.5363 11.888 26.7563 12.122 26.0603 12.59C25.3643 13.058 24.8123 13.682 24.4043 14.462C23.9963 15.242 23.7923 16.088 23.7923 17C23.7923 17.948 24.0023 18.806 24.4223 19.574C24.8423 20.342 25.4003 20.954 26.0963 21.41C26.8043 21.854 27.5723 22.076 28.4003 22.076ZM45.6536 26.324C44.7176 26.264 43.8116 26.078 42.9356 25.766C42.0716 25.442 41.3036 25.004 40.6316 24.452C39.9596 23.9 39.4436 23.24 39.0836 22.472L42.7916 20.888C42.9356 21.128 43.1696 21.386 43.4936 21.662C43.8176 21.926 44.2016 22.148 44.6456 22.328C45.1016 22.508 45.5996 22.598 46.1396 22.598C46.5956 22.598 47.0276 22.538 47.4356 22.418C47.8556 22.286 48.1916 22.088 48.4436 21.824C48.7076 21.56 48.8396 21.218 48.8396 20.798C48.8396 20.354 48.6836 20.012 48.3716 19.772C48.0716 19.52 47.6876 19.334 47.2196 19.214C46.7636 19.082 46.3196 18.962 45.8876 18.854C44.7476 18.626 43.6856 18.272 42.7016 17.792C41.7296 17.312 40.9436 16.694 40.3436 15.938C39.7556 15.17 39.4616 14.246 39.4616 13.166C39.4616 11.978 39.7736 10.952 40.3976 10.088C41.0336 9.224 41.8556 8.558 42.8636 8.09C43.8836 7.622 44.9816 7.388 46.1576 7.388C47.5856 7.388 48.8936 7.688 50.0816 8.288C51.2816 8.876 52.2296 9.71 52.9256 10.79L49.4516 12.842C49.2836 12.554 49.0496 12.29 48.7496 12.05C48.4496 11.798 48.1076 11.594 47.7236 11.438C47.3396 11.27 46.9376 11.174 46.5176 11.15C45.9776 11.126 45.4856 11.174 45.0416 11.294C44.5976 11.414 44.2376 11.618 43.9616 11.906C43.6976 12.194 43.5656 12.578 43.5656 13.058C43.5656 13.514 43.7456 13.856 44.1056 14.084C44.4656 14.3 44.8976 14.468 45.4016 14.588C45.9176 14.708 46.4096 14.84 46.8776 14.984C47.9336 15.332 48.9236 15.758 49.8476 16.262C50.7836 16.766 51.5336 17.384 52.0976 18.116C52.6616 18.848 52.9316 19.724 52.9076 20.744C52.9076 21.908 52.5596 22.928 51.8636 23.804C51.1676 24.668 50.2676 25.328 49.1636 25.784C48.0716 26.24 46.9016 26.42 45.6536 26.324ZM63.6269 26.468C61.9709 26.468 60.4589 26.042 59.0909 25.19C57.7349 24.338 56.6489 23.192 55.8329 21.752C55.0289 20.312 54.6269 18.722 54.6269 16.982C54.6269 15.674 54.8609 14.45 55.3289 13.31C55.7969 12.158 56.4389 11.15 57.2549 10.286C58.0829 9.41 59.0429 8.726 60.1349 8.234C61.2269 7.742 62.3909 7.496 63.6269 7.496C65.0309 7.496 66.3149 7.796 67.4789 8.396C68.6549 8.984 69.6509 9.794 70.4669 10.826C71.2829 11.858 71.8769 13.034 72.2489 14.354C72.6209 15.674 72.7049 17.054 72.5009 18.494H59.3429C59.5109 19.166 59.7869 19.772 60.1709 20.312C60.5549 20.84 61.0409 21.266 61.6289 21.59C62.2169 21.902 62.8829 22.064 63.6269 22.076C64.3949 22.088 65.0909 21.908 65.7149 21.536C66.3509 21.152 66.8789 20.636 67.2989 19.988L71.7809 21.032C71.0489 22.628 69.9569 23.936 68.5049 24.956C67.0529 25.964 65.4269 26.468 63.6269 26.468ZM59.1989 15.2H68.0549C67.9229 14.48 67.6409 13.832 67.2089 13.256C66.7889 12.668 66.2669 12.2 65.6429 11.852C65.0189 11.504 64.3469 11.33 63.6269 11.33C62.9069 11.33 62.2409 11.504 61.6289 11.852C61.0169 12.188 60.4949 12.65 60.0629 13.238C59.6429 13.814 59.3549 14.468 59.1989 15.2ZM85.0775 12.392H81.5855V26H77.1935V12.392H74.5295V8H77.1935V2.348H81.5855V8H85.0775V12.392ZM97.9799 12.392H94.4879V26H90.0959V12.392H87.4319V8H90.0959V2.348H94.4879V8H97.9799V12.392ZM108.732 26.468C107.076 26.468 105.564 26.042 104.196 25.19C102.84 24.338 101.754 23.192 100.938 21.752C100.134 20.312 99.7323 18.722 99.7323 16.982C99.7323 15.674 99.9663 14.45 100.434 13.31C100.902 12.158 101.544 11.15 102.36 10.286C103.188 9.41 104.148 8.726 105.24 8.234C106.332 7.742 107.496 7.496 108.732 7.496C110.136 7.496 111.42 7.796 112.584 8.396C113.76 8.984 114.756 9.794 115.572 10.826C116.388 11.858 116.982 13.034 117.354 14.354C117.726 15.674 117.81 17.054 117.606 18.494H104.448C104.616 19.166 104.892 19.772 105.276 20.312C105.66 20.84 106.146 21.266 106.734 21.59C107.322 21.902 107.988 22.064 108.732 22.076C109.5 22.088 110.196 21.908 110.82 21.536C111.456 21.152 111.984 20.636 112.404 19.988L116.886 21.032C116.154 22.628 115.062 23.936 113.61 24.956C112.158 25.964 110.532 26.468 108.732 26.468ZM104.304 15.2H113.16C113.028 14.48 112.746 13.832 112.314 13.256C111.894 12.668 111.372 12.2 110.748 11.852C110.124 11.504 109.452 11.33 108.732 11.33C108.012 11.33 107.346 11.504 106.734 11.852C106.122 12.188 105.6 12.65 105.168 13.238C104.748 13.814 104.46 14.468 104.304 15.2Z" fill="black"/>
</svg>
