<svg width="106" height="25" viewBox="0 0 106 25" fill="none" xmlns="http://www.w3.org/2000/svg">
<path fill-rule="evenodd" clip-rule="evenodd" d="M4.5 9.83789C4.91421 9.83789 5.25 10.1737 5.25 10.5879V20.0004H18.75V10.5879C18.75 10.1737 19.0858 9.83789 19.5 9.83789C19.9142 9.83789 20.25 10.1737 20.25 10.5879V20.0004C20.25 20.3982 20.092 20.7797 19.8107 21.061C19.5294 21.3424 19.1478 21.5004 18.75 21.5004H5.25C4.85218 21.5004 4.47065 21.3424 4.18934 21.061C3.90804 20.7797 3.75 20.3982 3.75 20.0004V10.5879C3.75 10.1737 4.08579 9.83789 4.5 9.83789Z" fill="#A259FF"/>
<path fill-rule="evenodd" clip-rule="evenodd" d="M2.25 4.25C2.25 3.83579 2.58579 3.5 3 3.5H21C21.4142 3.5 21.75 3.83579 21.75 4.25C21.75 4.66421 21.4142 5 21 5H3C2.58579 5 2.25 4.66421 2.25 4.25Z" fill="#A259FF"/>
<path fill-rule="evenodd" clip-rule="evenodd" d="M3 5.75C3.41421 5.75 3.75 6.08579 3.75 6.5V8C3.75 8.59674 3.98705 9.16903 4.40901 9.59099C4.83097 10.0129 5.40326 10.25 6 10.25C6.59674 10.25 7.16903 10.0129 7.59099 9.59099C8.01295 9.16903 8.25 8.59674 8.25 8V6.5C8.25 6.08579 8.58579 5.75 9 5.75C9.41421 5.75 9.75 6.08579 9.75 6.5V8C9.75 8.99456 9.35491 9.94839 8.65165 10.6516C7.94839 11.3549 6.99456 11.75 6 11.75C5.00544 11.75 4.05161 11.3549 3.34835 10.6516C2.64509 9.94839 2.25 8.99456 2.25 8V6.5C2.25 6.08579 2.58579 5.75 3 5.75Z" fill="#A259FF"/>
<path fill-rule="evenodd" clip-rule="evenodd" d="M9 5.75C9.41421 5.75 9.75 6.08579 9.75 6.5V8C9.75 8.59674 9.98705 9.16903 10.409 9.59099C10.831 10.0129 11.4033 10.25 12 10.25C12.5967 10.25 13.169 10.0129 13.591 9.59099C14.0129 9.16903 14.25 8.59674 14.25 8V6.5C14.25 6.08579 14.5858 5.75 15 5.75C15.4142 5.75 15.75 6.08579 15.75 6.5V8C15.75 8.99456 15.3549 9.94839 14.6516 10.6516C13.9484 11.3549 12.9946 11.75 12 11.75C11.0054 11.75 10.0516 11.3549 9.34835 10.6516C8.64509 9.94839 8.25 8.99456 8.25 8V6.5C8.25 6.08579 8.58579 5.75 9 5.75Z" fill="#A259FF"/>
<path fill-rule="evenodd" clip-rule="evenodd" d="M15 5.75C15.4142 5.75 15.75 6.08579 15.75 6.5V8C15.75 8.59674 15.9871 9.16903 16.409 9.59099C16.831 10.0129 17.4033 10.25 18 10.25C18.5967 10.25 19.169 10.0129 19.591 9.59099C20.0129 9.16903 20.25 8.59674 20.25 8V6.5C20.25 6.08579 20.5858 5.75 21 5.75C21.4142 5.75 21.75 6.08579 21.75 6.5V8C21.75 8.99456 21.3549 9.94839 20.6516 10.6516C19.9484 11.3549 18.9946 11.75 18 11.75C17.0054 11.75 16.0516 11.3549 15.3484 10.6516C14.6451 9.94839 14.25 8.99456 14.25 8V6.5C14.25 6.08579 14.5858 5.75 15 5.75Z" fill="#A259FF"/>
<path d="M34.7948 19V5.77H37.3508V19H34.7948ZM42.8228 19L38.7908 13.276H41.6528L45.8108 19H42.8228ZM36.5948 14.608V12.538H39.9428C40.4108 12.538 40.8128 12.442 41.1488 12.25C41.4968 12.058 41.7668 11.788 41.9588 11.44C42.1508 11.092 42.2468 10.696 42.2468 10.252C42.2468 9.796 42.1508 9.394 41.9588 9.046C41.7668 8.698 41.4968 8.428 41.1488 8.236C40.8128 8.044 40.4108 7.948 39.9428 7.948H36.5948V5.77H39.6728C40.7288 5.77 41.6408 5.926 42.4088 6.238C43.1888 6.55 43.7888 7.024 44.2088 7.66C44.6288 8.296 44.8388 9.094 44.8388 10.054V10.342C44.8388 11.314 44.6228 12.112 44.1908 12.736C43.7708 13.36 43.1768 13.828 42.4088 14.14C41.6408 14.452 40.7288 14.608 39.6728 14.608H36.5948ZM52.0741 19.342C51.2101 19.342 50.4481 19.204 49.7881 18.928C49.1281 18.652 48.5701 18.28 48.1141 17.812C47.6581 17.332 47.3101 16.792 47.0701 16.192C46.8421 15.592 46.7281 14.968 46.7281 14.32V13.942C46.7281 13.27 46.8481 12.634 47.0881 12.034C47.3401 11.422 47.6941 10.882 48.1501 10.414C48.6181 9.934 49.1821 9.562 49.8421 9.298C50.5021 9.022 51.2461 8.884 52.0741 8.884C52.9021 8.884 53.6461 9.022 54.3061 9.298C54.9661 9.562 55.5241 9.934 55.9801 10.414C56.4481 10.882 56.8021 11.422 57.0421 12.034C57.2821 12.634 57.4021 13.27 57.4021 13.942V14.32C57.4021 14.968 57.2821 15.592 57.0421 16.192C56.8141 16.792 56.4721 17.332 56.0161 17.812C55.5601 18.28 55.0021 18.652 54.3421 18.928C53.6821 19.204 52.9261 19.342 52.0741 19.342ZM52.0741 17.2C52.6861 17.2 53.2021 17.068 53.6221 16.804C54.0421 16.528 54.3601 16.162 54.5761 15.706C54.7921 15.238 54.9001 14.71 54.9001 14.122C54.9001 13.522 54.7861 12.994 54.5581 12.538C54.3421 12.07 54.0181 11.704 53.5861 11.44C53.1661 11.164 52.6621 11.026 52.0741 11.026C51.4861 11.026 50.9761 11.164 50.5441 11.44C50.1241 11.704 49.8001 12.07 49.5721 12.538C49.3441 12.994 49.2301 13.522 49.2301 14.122C49.2301 14.71 49.3381 15.238 49.5541 15.706C49.7821 16.162 50.1061 16.528 50.5261 16.804C50.9461 17.068 51.4621 17.2 52.0741 17.2ZM63.1389 19.306C61.7949 19.306 60.7389 19.024 59.9709 18.46C59.2149 17.884 58.8189 17.092 58.7829 16.084H61.0329C61.0689 16.42 61.2549 16.726 61.5909 17.002C61.9269 17.278 62.4549 17.416 63.1749 17.416C63.7749 17.416 64.2489 17.308 64.5969 17.092C64.9569 16.876 65.1369 16.582 65.1369 16.21C65.1369 15.886 64.9989 15.628 64.7229 15.436C64.4589 15.244 64.0029 15.118 63.3549 15.058L62.4909 14.968C61.3989 14.848 60.5589 14.536 59.9709 14.032C59.3829 13.528 59.0889 12.856 59.0889 12.016C59.0889 11.344 59.2569 10.78 59.5929 10.324C59.9289 9.868 60.3909 9.526 60.9789 9.298C61.5789 9.058 62.2629 8.938 63.0309 8.938C64.2309 8.938 65.2029 9.202 65.9469 9.73C66.6909 10.258 67.0809 11.032 67.1169 12.052H64.8669C64.8429 11.716 64.6749 11.428 64.3629 11.188C64.0509 10.948 63.6009 10.828 63.0129 10.828C62.4849 10.828 62.0769 10.93 61.7889 11.134C61.5009 11.338 61.3569 11.602 61.3569 11.926C61.3569 12.238 61.4709 12.478 61.6989 12.646C61.9389 12.814 62.3229 12.928 62.8509 12.988L63.7149 13.078C64.8669 13.198 65.7669 13.516 66.4149 14.032C67.0749 14.548 67.4049 15.244 67.4049 16.12C67.4049 16.768 67.2249 17.332 66.8649 17.812C66.5169 18.28 66.0249 18.646 65.3889 18.91C64.7529 19.174 64.0029 19.306 63.1389 19.306ZM73.8458 19.342C73.0058 19.342 72.2678 19.198 71.6318 18.91C71.0078 18.622 70.4858 18.238 70.0658 17.758C69.6578 17.266 69.3458 16.72 69.1298 16.12C68.9258 15.52 68.8238 14.908 68.8238 14.284V13.942C68.8238 13.294 68.9258 12.67 69.1298 12.07C69.3458 11.458 69.6578 10.918 70.0658 10.45C70.4858 9.97 71.0018 9.592 71.6138 9.316C72.2258 9.028 72.9338 8.884 73.7378 8.884C74.7938 8.884 75.6758 9.118 76.3838 9.586C77.1038 10.042 77.6438 10.648 78.0038 11.404C78.3638 12.148 78.5438 12.952 78.5438 13.816V14.716H69.8858V13.186H76.9778L76.2038 13.942C76.2038 13.318 76.1138 12.784 75.9338 12.34C75.7538 11.896 75.4778 11.554 75.1058 11.314C74.7458 11.074 74.2898 10.954 73.7378 10.954C73.1858 10.954 72.7178 11.08 72.3338 11.332C71.9498 11.584 71.6558 11.95 71.4518 12.43C71.2598 12.898 71.1638 13.462 71.1638 14.122C71.1638 14.734 71.2598 15.28 71.4518 15.76C71.6438 16.228 71.9378 16.6 72.3338 16.876C72.7298 17.14 73.2338 17.272 73.8458 17.272C74.4578 17.272 74.9558 17.152 75.3398 16.912C75.7238 16.66 75.9698 16.354 76.0778 15.994H78.3818C78.2378 16.666 77.9618 17.254 77.5538 17.758C77.1458 18.262 76.6238 18.652 75.9878 18.928C75.3638 19.204 74.6498 19.342 73.8458 19.342ZM84.8819 19.126C83.9819 19.126 83.2379 19.012 82.6499 18.784C82.0739 18.544 81.6419 18.148 81.3539 17.596C81.0659 17.032 80.9219 16.276 80.9219 15.328L80.9399 6.472H83.2799L83.2619 15.49C83.2619 15.97 83.3879 16.342 83.6399 16.606C83.9039 16.858 84.2759 16.984 84.7559 16.984H86.2859V19.126H84.8819ZM79.3739 11.062V9.226H86.2859V11.062H79.3739ZM92.6339 19.126C91.7339 19.126 90.9899 19.012 90.4019 18.784C89.8259 18.544 89.3939 18.148 89.1059 17.596C88.8179 17.032 88.6739 16.276 88.6739 15.328L88.6919 6.472H91.0319L91.0139 15.49C91.0139 15.97 91.1399 16.342 91.3919 16.606C91.6559 16.858 92.0279 16.984 92.5079 16.984H94.0379V19.126H92.6339ZM87.1259 11.062V9.226H94.0379V11.062H87.1259ZM100.459 19.342C99.6191 19.342 98.8811 19.198 98.2451 18.91C97.6211 18.622 97.0991 18.238 96.6791 17.758C96.2711 17.266 95.9591 16.72 95.7431 16.12C95.5391 15.52 95.4371 14.908 95.4371 14.284V13.942C95.4371 13.294 95.5391 12.67 95.7431 12.07C95.9591 11.458 96.2711 10.918 96.6791 10.45C97.0991 9.97 97.6151 9.592 98.2271 9.316C98.8391 9.028 99.5471 8.884 100.351 8.884C101.407 8.884 102.289 9.118 102.997 9.586C103.717 10.042 104.257 10.648 104.617 11.404C104.977 12.148 105.157 12.952 105.157 13.816V14.716H96.4991V13.186H103.591L102.817 13.942C102.817 13.318 102.727 12.784 102.547 12.34C102.367 11.896 102.091 11.554 101.719 11.314C101.359 11.074 100.903 10.954 100.351 10.954C99.7991 10.954 99.3311 11.08 98.9471 11.332C98.5631 11.584 98.2691 11.95 98.0651 12.43C97.8731 12.898 97.7771 13.462 97.7771 14.122C97.7771 14.734 97.8731 15.28 98.0651 15.76C98.2571 16.228 98.5511 16.6 98.9471 16.876C99.3431 17.14 99.8471 17.272 100.459 17.272C101.071 17.272 101.569 17.152 101.953 16.912C102.337 16.66 102.583 16.354 102.691 15.994H104.995C104.851 16.666 104.575 17.254 104.167 17.758C103.759 18.262 103.237 18.652 102.601 18.928C101.977 19.204 101.263 19.342 100.459 19.342Z" fill="#484848"/>
</svg>
