<svg width="29" height="29" viewBox="0 0 29 29" fill="none" xmlns="http://www.w3.org/2000/svg">
<path d="M23.5542 8.7832V6.06445C23.5542 4.56293 22.2813 3.3457 20.7111 3.3457H5.07385C3.50363 3.3457 2.23071 4.56293 2.23071 6.06445V22.377C2.23071 23.8785 3.50363 25.0957 5.07385 25.0957H20.7111C22.2813 25.0957 23.5542 23.8785 23.5542 22.377V19.6582M20.7111 14.2207H20.7253M16.4464 19.6582H24.9758C25.7609 19.6582 26.3974 19.0496 26.3974 18.2988V10.1426C26.3974 9.39182 25.7609 8.7832 24.9758 8.7832H16.4464C15.6613 8.7832 15.0248 9.39182 15.0248 10.1426V18.2988C15.0248 19.0496 15.6613 19.6582 16.4464 19.6582Z" stroke="#585D62" stroke-width="1.5" stroke-linecap="round"/>
</svg>
